<svg preserveAspectRatio="none" width="100%" height="100%" overflow="visible" style="display: block;" viewBox="0 0 27 27" fill="none" xmlns="http://www.w3.org/2000/svg">
<g id="tabler:map-pin-filled">
<path id="Vector" d="M20.6595 5.2155C22.5184 7.07415 23.5815 9.58288 23.6241 12.2112C23.6668 14.8396 22.6855 17.3814 20.8879 19.2994L20.6595 19.5356L15.8861 24.3079C15.2805 24.9132 14.4674 25.2656 13.6115 25.2938C12.7557 25.322 11.9212 25.0239 11.277 24.4598L11.115 24.3079L6.3405 19.5345C4.44168 17.6357 3.37494 15.0603 3.37494 12.375C3.37494 9.68967 4.44168 7.11432 6.3405 5.2155C8.23932 3.31668 10.8147 2.24994 13.5 2.24994C16.1853 2.24994 18.7607 3.31668 20.6595 5.2155ZM13.5 9C13.0568 9 12.6179 9.0873 12.2084 9.25691C11.799 9.42652 11.4269 9.67512 11.1135 9.98851C10.8001 10.3019 10.5515 10.674 10.3819 11.0834C10.2123 11.4929 10.125 11.9318 10.125 12.375C10.125 12.8182 10.2123 13.2571 10.3819 13.6666C10.5515 14.076 10.8001 14.4481 11.1135 14.7615C11.4269 15.0749 11.799 15.3235 12.2084 15.4931C12.6179 15.6627 13.0568 15.75 13.5 15.75C14.3951 15.75 15.2535 15.3944 15.8865 14.7615C16.5194 14.1286 16.875 13.2701 16.875 12.375C16.875 11.4799 16.5194 10.6214 15.8865 9.98851C15.2535 9.35558 14.3951 9 13.5 9Z" fill="var(--fill-0, #CC1608)"/>
</g>
</svg>
