<svg preserveAspectRatio="none" width="100%" height="100%" overflow="visible" style="display: block;" viewBox="0 0 29 29" fill="none" xmlns="http://www.w3.org/2000/svg">
<g id="material-symbols:mail">
<path id="Vector" d="M4.83464 24.1668C4.17005 24.1668 3.60133 23.9304 3.12847 23.4575C2.65561 22.9847 2.41877 22.4156 2.41797 21.7502V7.25016C2.41797 6.58558 2.6548 6.01686 3.12847 5.544C3.60214 5.07113 4.17086 4.8343 4.83464 4.8335H24.168C24.8326 4.8335 25.4017 5.07033 25.8753 5.544C26.349 6.01766 26.5854 6.58639 26.5846 7.25016V21.7502C26.5846 22.4147 26.3482 22.9839 25.8753 23.4575C25.4025 23.9312 24.8334 24.1676 24.168 24.1668H4.83464ZM14.5013 15.7085L24.168 9.66683V7.25016L14.5013 13.2918L4.83464 7.25016V9.66683L14.5013 15.7085Z" fill="var(--fill-0, #CC1608)"/>
</g>
</svg>
