<svg width="10" height="10" viewBox="0 0 10 10" fill="none" xmlns="http://www.w3.org/2000/svg">
<g clip-path="url(#clip0_439_5022)">
<path d="M6.66536 8.75V7.91667C6.66536 7.47464 6.48977 7.05072 6.17721 6.73816C5.86465 6.4256 5.44073 6.25 4.9987 6.25H2.4987C2.05667 6.25 1.63275 6.4256 1.32019 6.73816C1.00763 7.05072 0.832031 7.47464 0.832031 7.91667V8.75" stroke="white" stroke-width="1.04167" stroke-linecap="round" stroke-linejoin="round"/>
<path d="M3.7487 4.58333C4.66917 4.58333 5.41536 3.83714 5.41536 2.91667C5.41536 1.99619 4.66917 1.25 3.7487 1.25C2.82822 1.25 2.08203 1.99619 2.08203 2.91667C2.08203 3.83714 2.82822 4.58333 3.7487 4.58333Z" stroke="white" stroke-width="1.04167" stroke-linecap="round" stroke-linejoin="round"/>
<path d="M9.16797 8.74954V7.91621C9.16769 7.54693 9.04478 7.1882 8.81854 6.89634C8.59229 6.60448 8.27552 6.39603 7.91797 6.30371" stroke="white" stroke-width="1.04167" stroke-linecap="round" stroke-linejoin="round"/>
<path d="M6.66797 1.30371C7.02647 1.3955 7.34423 1.604 7.57115 1.89634C7.79807 2.18868 7.92124 2.54822 7.92124 2.91829C7.92124 3.28837 7.79807 3.64791 7.57115 3.94025C7.34423 4.23259 7.02647 4.44109 6.66797 4.53288" stroke="white" stroke-width="1.04167" stroke-linecap="round" stroke-linejoin="round"/>
</g>
<defs>
<clipPath id="clip0_439_5022">
<rect width="10" height="10" fill="white"/>
</clipPath>
</defs>
</svg>
