<svg width="10" height="10" viewBox="0 0 10 10" fill="none" xmlns="http://www.w3.org/2000/svg">
<path d="M5.25172 9.08259C6.02672 8.41342 8.33464 6.24676 8.33464 4.16634C8.33464 3.28229 7.98345 2.43444 7.35832 1.80932C6.7332 1.1842 5.88536 0.833008 5.0013 0.833008C4.11725 0.833008 3.2694 1.1842 2.64428 1.80932C2.01916 2.43444 1.66797 3.28229 1.66797 4.16634C1.66797 6.24676 3.97589 8.41342 4.75089 9.08259C4.82308 9.13688 4.91097 9.16624 5.0013 9.16624C5.09163 9.16624 5.17952 9.13688 5.25172 9.08259Z" stroke="white" stroke-width="1.04167" stroke-linecap="round" stroke-linejoin="round"/>
<path d="M5 5.41699C5.69036 5.41699 6.25 4.85735 6.25 4.16699C6.25 3.47664 5.69036 2.91699 5 2.91699C4.30964 2.91699 3.75 3.47664 3.75 4.16699C3.75 4.85735 4.30964 5.41699 5 5.41699Z" stroke="white" stroke-width="1.04167" stroke-linecap="round" stroke-linejoin="round"/>
</svg>
