<svg width="34" height="34" viewBox="0 0 34 34" fill="none" xmlns="http://www.w3.org/2000/svg">
<path d="M25.7656 19.125C24.7675 19.125 23.7917 19.421 22.9617 19.9756C22.1318 20.5301 21.4849 21.3183 21.1029 22.2405C20.7209 23.1627 20.621 24.1775 20.8157 25.1565C21.0105 26.1355 21.4911 27.0347 22.1969 27.7406C22.9028 28.4464 23.802 28.927 24.781 29.1218C25.76 29.3165 26.7748 29.2166 27.697 28.8346C28.6192 28.4526 29.4074 27.8057 29.962 26.9758C30.5165 26.1458 30.8125 25.1701 30.8125 24.1719C30.8083 22.8347 30.2752 21.5534 29.3297 20.6078C28.3841 19.6623 27.1028 19.1292 25.7656 19.125ZM8.23438 19.125C7.2362 19.125 6.26044 19.421 5.43048 19.9756C4.60053 20.5301 3.95366 21.3183 3.57167 22.2405C3.18969 23.1627 3.08974 24.1775 3.28448 25.1565C3.47921 26.1355 3.95988 27.0347 4.6657 27.7406C5.37152 28.4464 6.27078 28.927 7.24978 29.1218C8.22878 29.3165 9.24354 29.2166 10.1657 28.8346C11.0879 28.4526 11.8761 27.8057 12.4307 26.9758C12.9853 26.1458 13.2813 25.1701 13.2813 24.1719C13.277 22.8347 12.744 21.5534 11.7984 20.6078C10.8529 19.6623 9.5716 19.1292 8.23438 19.125Z" stroke="#CC1608" stroke-width="2" stroke-miterlimit="10"/>
<path d="M17 23.9062V18.1953L12.75 15.4062L18.0625 9.5625L20.7188 14.3438H24.4375" stroke="#CC1608" stroke-width="2" stroke-linecap="round" stroke-linejoin="round"/>
<path d="M21.2512 9.03132C21.5311 9.03229 21.8084 8.97777 22.0671 8.8709C22.3258 8.76404 22.5607 8.60696 22.7583 8.40873C22.9559 8.21051 23.1123 7.97508 23.2183 7.71606C23.3244 7.45704 23.378 7.17956 23.3762 6.89968C23.3793 6.62119 23.3268 6.34488 23.2219 6.0869C23.1169 5.82893 22.9616 5.59446 22.765 5.39722C22.5684 5.19998 22.3344 5.04392 22.0767 4.93817C21.8191 4.83242 21.543 4.77909 21.2645 4.78132C20.9854 4.78044 20.7089 4.83455 20.4508 4.94053C20.1926 5.04652 19.9579 5.20231 19.7599 5.39902C19.3602 5.79629 19.1346 6.33609 19.1328 6.89968C19.1311 7.46326 19.3533 8.00446 19.7505 8.40422C20.1478 8.80398 20.6876 9.02956 21.2512 9.03132Z" fill="#CC1608"/>
</svg>
