<svg preserveAspectRatio="none" width="100%" height="100%" overflow="visible" style="display: block;" viewBox="0 0 57 57" fill="none" xmlns="http://www.w3.org/2000/svg">
<g id="ri:whatsapp-fill">
<path id="Vector" d="M28.5039 4.75C41.6211 4.75 52.2539 15.3829 52.2539 28.5C52.2539 41.6171 41.6211 52.25 28.5039 52.25C24.3067 52.2572 20.1833 51.1465 16.5577 49.0319L4.76344 52.25L7.97444 40.451C5.85822 36.8242 4.74659 32.699 4.75394 28.5C4.75394 15.3829 15.3868 4.75 28.5039 4.75ZM20.4099 17.3375L19.9349 17.3565C19.6278 17.3777 19.3278 17.4583 19.0514 17.594C18.7939 17.7401 18.5588 17.9225 18.3532 18.1355C18.0682 18.4039 17.9067 18.6366 17.7333 18.8622C16.8549 20.0044 16.3819 21.4066 16.3891 22.8475C16.3938 24.0112 16.6978 25.1441 17.1728 26.2034C18.1442 28.3456 19.7426 30.6137 21.8516 32.7156C22.3598 33.2215 22.8586 33.7298 23.3953 34.2024C26.016 36.5095 29.1387 38.1733 32.5153 39.0616L33.8643 39.2683C34.3037 39.292 34.7431 39.2587 35.1848 39.2374C35.8764 39.2009 36.5516 39.0137 37.1632 38.6888C37.474 38.5281 37.7775 38.3537 38.0728 38.1662C38.0728 38.1662 38.1734 38.0982 38.3697 37.9525C38.6903 37.715 38.8874 37.5464 39.1534 37.2685C39.3529 37.0627 39.5192 36.8236 39.6522 36.5513C39.8374 36.1641 40.0227 35.4255 40.0987 34.8104C40.1557 34.3401 40.1391 34.0836 40.1319 33.9245C40.1224 33.6704 39.9111 33.4068 39.6807 33.2951L38.2984 32.6753C38.2984 32.6753 36.2322 31.7751 34.9687 31.2004C34.8364 31.1428 34.6948 31.1098 34.5507 31.103C34.3882 31.086 34.2239 31.1041 34.069 31.1562C33.9141 31.2082 33.7722 31.2929 33.6529 31.4046C33.6411 31.3999 33.4819 31.5353 31.7648 33.6158C31.6663 33.7482 31.5305 33.8483 31.3749 33.9033C31.2192 33.9582 31.0507 33.9656 30.8908 33.9245C30.736 33.8832 30.5844 33.8309 30.4372 33.7678C30.1427 33.6443 30.0406 33.5967 29.8387 33.5112C28.4751 32.9173 27.213 32.1135 26.0981 31.1291C25.7988 30.8679 25.5209 30.5829 25.2359 30.3074C24.3016 29.4125 23.4874 28.4002 22.8134 27.2959L22.6733 27.0702C22.5742 26.9178 22.4929 26.7544 22.4311 26.5834C22.3408 26.2342 22.5759 25.954 22.5759 25.954C22.5759 25.954 23.1531 25.3222 23.4214 24.9802C23.6827 24.6477 23.9036 24.3248 24.0461 24.0944C24.3263 23.6431 24.4142 23.18 24.2669 22.8214C23.6019 21.1969 22.9148 19.5811 22.2054 17.974C22.0653 17.6557 21.6497 17.4277 21.2721 17.3826C21.1438 17.3668 21.0156 17.3541 20.8873 17.3446C20.5684 17.3263 20.2487 17.3295 19.9302 17.3541L20.4099 17.3375Z" fill="var(--fill-0, #08CC53)"/>
</g>
</svg>
