<svg preserveAspectRatio="none" width="100%" height="100%" overflow="visible" style="display: block;" viewBox="0 0 51 51" fill="none" xmlns="http://www.w3.org/2000/svg">
<g id="ri:instagram-fill">
<path id="Vector" d="M27.6857 4.25C30.0763 4.25637 31.2897 4.26913 32.3373 4.29887L32.7496 4.31375C33.2256 4.33075 33.6952 4.352 34.2626 4.3775C36.5236 4.48375 38.0663 4.84075 39.42 5.36563C40.8225 5.90538 42.004 6.63637 43.1855 7.81575C44.2664 8.87768 45.1026 10.1628 45.6356 11.5812C46.1605 12.9349 46.5175 14.4776 46.6237 16.7407C46.6492 17.306 46.6705 17.7756 46.6875 18.2537L46.7002 18.666C46.7321 19.7115 46.7448 20.9249 46.7491 23.3155L46.7512 24.9007V27.6845C46.7564 29.2345 46.7401 30.7845 46.7023 32.334L46.6896 32.7462C46.6726 33.2244 46.6513 33.694 46.6258 34.2592C46.5196 36.5224 46.1583 38.063 45.6356 39.4187C45.1026 40.8372 44.2664 42.1223 43.1855 43.1842C42.1235 44.2652 40.8385 45.1014 39.42 45.6344C38.0663 46.1592 36.5236 46.5162 34.2626 46.6225L32.7496 46.6862L32.3373 46.699C31.2897 46.7287 30.0763 46.7436 27.6857 46.7479L26.1005 46.75H23.3188C21.7681 46.7555 20.2174 46.7392 18.6672 46.7011L18.255 46.6884C17.7505 46.6693 17.2462 46.6473 16.742 46.6225C14.481 46.5162 12.9382 46.1592 11.5825 45.6344C10.1647 45.1011 8.8804 44.265 7.81908 43.1842C6.73734 42.1225 5.90044 40.8374 5.36683 39.4187C4.84196 38.0651 4.48496 36.5224 4.37871 34.2592L4.31496 32.7462L4.30433 32.334C4.26516 30.7845 4.24745 29.2345 4.25121 27.6845V23.3155C4.24533 21.7655 4.26091 20.2155 4.29796 18.666L4.31283 18.2537C4.32983 17.7756 4.35108 17.306 4.37658 16.7407C4.48283 14.4776 4.83983 12.937 5.36471 11.5812C5.89956 10.1622 6.73793 8.87705 7.82121 7.81575C8.88191 6.73529 10.1655 5.89916 11.5825 5.36563C12.9382 4.84075 14.4788 4.48375 16.742 4.3775C17.3072 4.352 17.779 4.33075 18.255 4.31375L18.6672 4.301C20.2167 4.26324 21.7667 4.24695 23.3167 4.25212L27.6857 4.25ZM25.5012 14.875C22.6833 14.875 19.9808 15.9944 17.9882 17.987C15.9956 19.9796 14.8762 22.6821 14.8762 25.5C14.8762 28.3179 15.9956 31.0204 17.9882 33.013C19.9808 35.0056 22.6833 36.125 25.5012 36.125C28.3191 36.125 31.0216 35.0056 33.0142 33.013C35.0068 31.0204 36.1262 28.3179 36.1262 25.5C36.1262 22.6821 35.0068 19.9796 33.0142 17.987C31.0216 15.9944 28.3191 14.875 25.5012 14.875ZM25.5012 19.125C26.3384 19.1249 27.1674 19.2896 27.9409 19.6099C28.7144 19.9301 29.4173 20.3996 30.0093 20.9914C30.6014 21.5833 31.0711 22.286 31.3916 23.0594C31.7121 23.8328 31.8771 24.6618 31.8773 25.4989C31.8774 26.3361 31.7127 27.1651 31.3924 27.9386C31.0722 28.7121 30.6027 29.415 30.0108 30.0071C29.419 30.5991 28.7163 31.0688 27.9429 31.3893C27.1695 31.7098 26.3405 31.8749 25.5033 31.875C23.8126 31.875 22.1911 31.2033 20.9955 30.0078C19.8 28.8123 19.1283 27.1908 19.1283 25.5C19.1283 23.8092 19.8 22.1877 20.9955 20.9922C22.1911 19.7966 23.8126 19.125 25.5033 19.125M36.6596 11.6875C35.9551 11.6875 35.2795 11.9674 34.7813 12.4655C34.2832 12.9636 34.0033 13.6393 34.0033 14.3437C34.0033 15.0482 34.2832 15.7239 34.7813 16.222C35.2795 16.7201 35.9551 17 36.6596 17C37.3641 17 38.0397 16.7201 38.5378 16.222C39.036 15.7239 39.3158 15.0482 39.3158 14.3437C39.3158 13.6393 39.036 12.9636 38.5378 12.4655C38.0397 11.9674 37.3641 11.6875 36.6596 11.6875Z" fill="url(#paint0_linear_0_14)"/>
</g>
<defs>
<linearGradient id="paint0_linear_0_14" x1="25.5011" y1="4.25" x2="25.5011" y2="46.751" gradientUnits="userSpaceOnUse">
<stop stop-color="#EB88FF"/>
<stop offset="0.5" stop-color="#CC1608"/>
<stop offset="1" stop-color="#FFB900"/>
</linearGradient>
</defs>
</svg>
