<svg preserveAspectRatio="none" width="100%" height="100%" overflow="visible" style="display: block;" viewBox="0 0 17.9999 15.0002" fill="none" xmlns="http://www.w3.org/2000/svg">
<path id="Subtract" d="M2.51887 0.2604C7.34288 -0.0860533 10.6925 -0.086893 15.4779 0.258447C16.6572 0.343557 17.5961 1.12201 17.7005 2.10513C18.1217 6.07288 18.0821 8.87456 17.6849 12.8756C17.5862 13.8697 16.6416 14.6615 15.4495 14.7458C10.6499 15.0849 7.30417 15.0845 2.56574 14.7477C1.37078 14.6628 0.426053 13.8664 0.328438 12.8698C-0.0594957 8.90915 -0.145717 6.10054 0.299141 2.09341C0.407712 1.11547 1.34525 0.344691 2.51887 0.2604ZM15.056 3.49673C14.7779 3.18973 14.3034 3.16594 13.9964 3.44399L10.1859 6.89517L10.1829 6.89907C9.51387 7.51238 8.48676 7.5114 7.8177 6.8981L4.00324 3.44399C3.69623 3.16609 3.22169 3.18978 2.94367 3.49673C2.66592 3.80374 2.68951 4.27833 2.99641 4.5563L6.80598 8.00552C8.04799 9.14237 9.95266 9.14241 11.1946 8.00552L11.1956 8.00454L15.0032 4.5563C15.3102 4.27829 15.3339 3.80374 15.056 3.49673Z" fill="var(--fill-0, white)"/>
</svg>
