<svg width="24" height="24" viewBox="0 0 24 24" fill="none" xmlns="http://www.w3.org/2000/svg">
<path d="M5.51887 4.7604C10.3429 4.41395 13.6925 4.41311 18.4779 4.75845C19.6572 4.84356 20.5961 5.62201 20.7005 6.60513C21.1217 10.5729 21.0821 13.3746 20.6849 17.3756C20.5862 18.3697 19.6416 19.1615 18.4495 19.2458C13.6499 19.5849 10.3042 19.5844 5.56574 19.2477C4.37078 19.1628 3.42605 18.3664 3.32844 17.3698C2.9405 13.4091 2.85428 10.6005 3.29914 6.59341C3.40771 5.61547 4.34525 4.84469 5.51887 4.7604ZM18.056 7.99673C17.7779 7.68973 17.3034 7.66594 16.9964 7.94399L13.1859 11.3952L13.1829 11.3991C12.5139 12.0124 11.4868 12.0114 10.8177 11.3981L7.00324 7.94399C6.69623 7.66609 6.22169 7.68978 5.94367 7.99673C5.66592 8.30374 5.68951 8.77833 5.99641 9.0563L9.80598 12.5055C11.048 13.6424 12.9527 13.6424 14.1946 12.5055L14.1956 12.5045L18.0032 9.0563C18.3102 8.77829 18.3339 8.30374 18.056 7.99673Z" fill="white"/>
</svg>
