<svg width="30" height="30" viewBox="0 0 30 30" fill="none" xmlns="http://www.w3.org/2000/svg">
<path d="M19.491 3.78398C18.3507 2.55293 16.7581 1.875 15.0003 1.875C13.2331 1.875 11.6353 2.54883 10.5003 3.77227C9.35307 5.00918 8.79409 6.69023 8.92534 8.50547C9.18549 12.0867 11.9107 15 15.0003 15C18.09 15 20.8105 12.0873 21.0748 8.50664C21.2078 6.70781 20.6453 5.03027 19.491 3.78398ZM25.3128 28.125H4.68784C4.41787 28.1285 4.15052 28.0718 3.90524 27.959C3.65995 27.8462 3.4429 27.6801 3.26987 27.4729C2.88901 27.0176 2.73549 26.3959 2.84916 25.7672C3.34369 23.0238 4.88705 20.7193 7.31284 19.1016C9.46791 17.6654 12.1978 16.875 15.0003 16.875C17.8029 16.875 20.5328 17.666 22.6878 19.1016C25.1136 20.7188 26.657 23.0232 27.1515 25.7666C27.2652 26.3953 27.1117 27.017 26.7308 27.4723C26.5578 27.6796 26.3408 27.8458 26.0955 27.9587C25.8502 28.0716 25.5828 28.1284 25.3128 28.125Z" fill="#CC1608"/>
</svg>
