<svg width="28" height="28" viewBox="0 0 28 28" fill="none" xmlns="http://www.w3.org/2000/svg">
<path d="M26.1281 13.4761C26.0116 13.148 25.7327 12.9538 25.4412 12.8226L23.625 12.1067V5.03125C23.625 4.74117 23.5098 4.46297 23.3047 4.25785C23.0996 4.05273 22.8214 3.9375 22.5313 3.9375H18.375V2.1875C18.375 1.95544 18.2828 1.73288 18.1188 1.56878C17.9547 1.40469 17.7321 1.3125 17.5 1.3125H10.5C10.268 1.3125 10.0454 1.40469 9.88132 1.56878C9.71722 1.73288 9.62503 1.95544 9.62503 2.1875V3.9375H5.46878C5.1787 3.9375 4.9005 4.05273 4.69539 4.25785C4.49027 4.46297 4.37503 4.74117 4.37503 5.03125V12.1111L2.56597 12.8253C2.27449 12.9566 1.98738 13.1534 1.87035 13.4816C1.75331 13.8097 1.69753 14.1274 1.81566 14.5206L4.60746 22.7336H4.66542C6.53136 22.7336 8.16542 21.7815 9.33082 20.3372C10.4968 21.7815 12.1297 22.6406 13.9957 22.6406C15.8616 22.6406 17.4957 21.7787 18.6611 20.3345C19.827 21.7787 21.46 22.7336 23.3259 22.7336H23.3839L26.1866 14.5212C26.3047 14.193 26.2451 13.8048 26.1281 13.4761ZM14 8.3125L6.12503 11.4204V5.90625C6.12503 5.84823 6.14808 5.79259 6.1891 5.75157C6.23013 5.71055 6.28577 5.6875 6.34378 5.6875H21.6563C21.7143 5.6875 21.7699 5.71055 21.811 5.75157C21.852 5.79259 21.875 5.84823 21.875 5.90625V11.4166L14 8.3125Z" fill="#CC1608"/>
<path d="M18.8803 22.2578C16.0229 24.2408 11.9705 24.2402 9.11312 22.2578C9.11312 22.2578 6.61719 25.7031 3.9375 25.7031L4.66648 25.7578C6.29945 25.7578 7.87391 25.1163 9.33187 24.3584C10.7733 25.1056 12.3731 25.4957 13.9967 25.4957C15.6203 25.4957 17.2202 25.1056 18.6616 24.3584C20.1195 25.1169 21.694 25.7584 23.327 25.7584L24.0559 25.7037C21.4501 25.7031 18.8803 22.2578 18.8803 22.2578Z" fill="#CC1608"/>
</svg>
